<svg width="70" height="74" viewBox="0 0 70 74" fill="none" xmlns="http://www.w3.org/2000/svg">
<path d="M27.8149 52.9234C29.9372 53.8467 32.2143 54.3247 34.5151 54.3299C36.8159 54.335 39.0949 53.8671 41.221 52.9532C43.3471 52.0393 45.2783 50.6974 46.9034 49.0048C48.5285 47.3122 49.8154 45.3022 50.6901 43.0906C51.5647 40.879 52.0099 38.5094 51.9998 36.1183C51.9898 33.7272 51.5248 31.3618 50.6317 29.1582C49.7385 26.9546 48.4347 24.9564 46.7955 23.2785C45.1563 21.6006 43.2139 20.2763 41.0802 19.3817C38.961 18.4765 36.691 18.0139 34.3997 18.0205C32.1085 18.027 29.8409 18.5025 27.7265 19.4197C25.6121 20.337 23.6922 21.6781 22.0765 23.3665C20.4608 25.0549 19.1809 27.0575 18.3099 29.2599C16.5508 33.7079 16.5639 38.7 18.3465 43.1379C20.129 47.5759 23.5349 51.0961 27.8149 52.9243V52.9234Z" fill="#2A3361"/>
<path fill-rule="evenodd" clip-rule="evenodd" d="M27 9.02612L8.08618 20.3546L8.08618 42.0642L10.5862 40.5669L10.5862 21.8514L27 12.0203V9.02612ZM43 12.6198V9.62507L60.9137 20.3546V42.3968L58.4137 40.8994V21.8519L43 12.6198ZM18.2955 55.1158L34.5 64.8215L50.4268 55.2821L52.9268 56.7795L34.5 67.8163L15.7955 56.6132L18.2955 55.1158Z" fill="white"/>
<path d="M34 6.60883V37.2126" stroke="white" stroke-width="2.5" stroke-dasharray="4 2"/>
<path d="M11 50.1803L34 37.2126" stroke="white" stroke-width="2.5" stroke-dasharray="4 2"/>
<path d="M34 37.2125L57 50.1802" stroke="white" stroke-width="2.5" stroke-dasharray="4 2"/>
<path d="M37.596 6.51637C37.596 8.68266 35.9989 10.3384 33.9118 10.3384C31.8237 10.3384 30.2288 8.68266 30.2288 6.51749C30.2288 4.35009 31.8237 2.6955 33.9118 2.6955C35.9989 2.6955 37.5949 4.35121 37.5949 6.51637H37.596Z" fill="#C2D6FF"/>
<path d="M33.9108 11.6119C32.5614 11.6119 31.3326 11.1024 30.4732 10.0835C29.4911 9.06463 29 7.791 29 6.51626C29.004 5.16638 29.5226 3.87297 30.4427 2.91846C31.3628 1.96394 32.6096 1.42588 33.9108 1.42175C35.2123 1.42529 36.4597 1.96309 37.3802 2.91767C38.3008 3.87225 38.8197 5.16599 38.8237 6.51626C38.82 7.86652 38.3013 9.16039 37.381 10.1152C36.4606 11.07 35.2134 11.608 33.9118 11.6119H33.9108ZM33.9108 3.96901C33.2602 3.97107 32.6368 4.2401 32.1767 4.71736C31.7167 5.19461 31.4574 5.84132 31.4554 6.51626C31.4554 7.15307 31.7009 7.78989 32.1931 8.30045C32.4165 8.53954 32.6835 8.73021 32.9786 8.86139C33.2736 8.99257 33.5909 9.06165 33.9118 9.06463C34.5624 9.06257 35.1858 8.79353 35.6459 8.31628C36.1059 7.83902 36.3652 7.19231 36.3672 6.51738C36.3655 5.84224 36.1063 5.19525 35.6462 4.71775C35.1862 4.24026 34.5626 3.97107 33.9118 3.96901H33.9108Z" fill="#1C69F7"/>
<path d="M14.596 50.0878C14.596 52.2541 12.9989 53.9098 10.9118 53.9098C8.82368 53.9098 7.22876 52.2541 7.22876 50.0889C7.22876 47.9215 8.82368 46.2669 10.9118 46.2669C12.9989 46.2669 14.5949 47.9226 14.5949 50.0878H14.596Z" fill="#C2D6FF"/>
<path d="M10.9108 55.1833C9.56138 55.1833 8.33262 54.6738 7.47323 53.6549C6.49108 52.636 6 51.3624 6 50.0877C6.00398 48.7378 6.52264 47.4444 7.44272 46.4899C8.36281 45.5354 9.60957 44.9973 10.9108 44.9932C12.2123 44.9967 13.4597 45.5345 14.3802 46.4891C15.3008 47.4437 15.8197 48.7374 15.8237 50.0877C15.82 51.4379 15.3013 52.7318 14.381 53.6866C13.4606 54.6414 12.2134 55.1795 10.9118 55.1833H10.9108ZM10.9108 47.5404C10.2602 47.5425 9.63679 47.8115 9.17675 48.2888C8.7167 48.766 8.45737 49.4127 8.45538 50.0877C8.45538 50.7245 8.70092 51.3613 9.19308 51.8719C9.41653 52.111 9.68352 52.3016 9.97857 52.4328C10.2736 52.564 10.5909 52.6331 10.9118 52.636C11.5624 52.634 12.1858 52.3649 12.6459 51.8877C13.1059 51.4104 13.3652 50.7637 13.3672 50.0888C13.3655 49.4137 13.1063 48.7667 12.6462 48.2892C12.1862 47.8117 11.5626 47.5425 10.9118 47.5404H10.9108Z" fill="#1C69F7"/>
<path d="M61.596 50.0878C61.596 52.2541 59.9989 53.9098 57.9118 53.9098C55.8237 53.9098 54.2288 52.2541 54.2288 50.0889C54.2288 47.9215 55.8237 46.2669 57.9118 46.2669C59.9989 46.2669 61.5949 47.9226 61.5949 50.0878H61.596Z" fill="#C2D6FF"/>
<path d="M57.9108 55.1833C56.5614 55.1833 55.3326 54.6738 54.4732 53.6549C53.4911 52.636 53 51.3624 53 50.0877C53.004 48.7378 53.5226 47.4444 54.4427 46.4899C55.3628 45.5354 56.6096 44.9973 57.9108 44.9932C59.2123 44.9967 60.4597 45.5345 61.3802 46.4891C62.3008 47.4437 62.8197 48.7374 62.8237 50.0877C62.82 51.4379 62.3013 52.7318 61.381 53.6866C60.4606 54.6414 59.2134 55.1795 57.9118 55.1833H57.9108ZM57.9108 47.5404C57.2602 47.5425 56.6368 47.8115 56.1767 48.2888C55.7167 48.766 55.4574 49.4127 55.4554 50.0877C55.4554 50.7245 55.7009 51.3613 56.1931 51.8719C56.4165 52.111 56.6835 52.3016 56.9786 52.4328C57.2736 52.564 57.5909 52.6331 57.9118 52.636C58.5624 52.634 59.1858 52.3649 59.6459 51.8877C60.1059 51.4104 60.3652 50.7637 60.3672 50.0888C60.3655 49.4137 60.1063 48.7667 59.6462 48.2892C59.1862 47.8117 58.5626 47.5425 57.9118 47.5404H57.9108Z" fill="#1C69F7"/>
<path d="M22.3266 28.8436L34.5 21.5523L46.6734 28.8436V43.5067L34.5 50.798L22.3266 43.5067V28.8436Z" stroke="white" stroke-width="2.5"/>
</svg>
