<svg width="70" height="74" viewBox="0 0 70 74" fill="none" xmlns="http://www.w3.org/2000/svg">
<path d="M27.8149 47.7363C29.9372 48.6597 32.2143 49.1377 34.5151 49.1428C36.8159 49.1479 39.0949 48.6801 41.221 47.7662C43.3471 46.8523 45.2783 45.5104 46.9034 43.8177C48.5285 42.1251 49.8154 40.1151 50.6901 37.9035C51.5647 35.6919 52.0099 33.3224 51.9998 30.9313C51.9898 28.5402 51.5248 26.1747 50.6317 23.9711C49.7385 21.7675 48.4347 19.7693 46.7955 18.0914C45.1563 16.4136 43.2139 15.0892 41.0802 14.1946C38.961 13.2894 36.691 12.8269 34.3997 12.8334C32.1085 12.8399 29.8409 13.3154 27.7265 14.2327C25.6121 15.1499 23.6922 16.4911 22.0765 18.1794C20.4608 19.8678 19.1809 21.8704 18.3099 24.0728C16.5508 28.5209 16.5639 33.5129 18.3465 37.9509C20.129 42.3888 23.5349 45.9091 27.8149 47.7372V47.7363Z" fill="#2A3361"/>
<path d="M9.33623 21.0629L34.5 5.99106L59.6638 21.0629V51.2874L34.5 66.3592L9.33623 51.2874V21.0629Z" stroke="white" stroke-width="2.5"/>
<path d="M26 29.0861H42.6667" stroke="white" stroke-width="2.5"/>
<path d="M26 36.0023H42.6667" stroke="white" stroke-width="2.5"/>
<path d="M34.3334 29.0861V42.9183" stroke="white" stroke-width="2.5"/>
<path d="M27.6666 22.17L34.3333 28.2216L41 22.17" stroke="white" stroke-width="2.5"/>
<path d="M10 21.1326L34 65.2228" stroke="white" stroke-width="2.5" stroke-dasharray="4 2"/>
<path d="M58 22.6888L34 65.2228" stroke="white" stroke-width="2.5" stroke-dasharray="4 2"/>
<path d="M37.596 6.51637C37.596 8.68266 35.9989 10.3384 33.9118 10.3384C31.8237 10.3384 30.2288 8.68266 30.2288 6.51749C30.2288 4.35009 31.8237 2.6955 33.9118 2.6955C35.9989 2.6955 37.5949 4.35121 37.5949 6.51637H37.596Z" fill="#C2D6FF"/>
<path d="M33.9108 11.6119C32.5614 11.6119 31.3326 11.1024 30.4732 10.0835C29.4911 9.06463 29 7.791 29 6.51626C29.004 5.16638 29.5226 3.87297 30.4427 2.91846C31.3628 1.96394 32.6096 1.42588 33.9108 1.42175C35.2123 1.42529 36.4597 1.96309 37.3802 2.91767C38.3008 3.87225 38.8197 5.16599 38.8237 6.51626C38.82 7.86652 38.3013 9.16039 37.381 10.1152C36.4606 11.07 35.2134 11.608 33.9118 11.6119H33.9108ZM33.9108 3.96901C33.2602 3.97107 32.6368 4.2401 32.1767 4.71736C31.7167 5.19461 31.4574 5.84132 31.4554 6.51626C31.4554 7.15307 31.7009 7.78989 32.1931 8.30045C32.4165 8.53954 32.6835 8.73021 32.9786 8.86139C33.2736 8.99257 33.5909 9.06165 33.9118 9.06463C34.5624 9.06257 35.1858 8.79353 35.6459 8.31628C36.1059 7.83902 36.3652 7.19231 36.3672 6.51738C36.3655 5.84224 36.1063 5.19525 35.6462 4.71775C35.1862 4.24026 34.5626 3.97107 33.9118 3.96901H33.9108Z" fill="#1C69F7"/>
<path d="M37.596 65.649C37.596 67.8153 35.9989 69.471 33.9118 69.471C31.8237 69.471 30.2288 67.8153 30.2288 65.6501C30.2288 63.4827 31.8237 61.8281 33.9118 61.8281C35.9989 61.8281 37.5949 63.4838 37.5949 65.649H37.596Z" fill="white"/>
<path d="M33.9108 70.7445C32.5614 70.7445 31.3326 70.2351 30.4732 69.2162C29.4911 68.1973 29 66.9236 29 65.6489C29.004 64.299 29.5226 63.0056 30.4427 62.0511C31.3628 61.0966 32.6096 60.5585 33.9108 60.5544C35.2123 60.5579 36.4597 61.0957 37.3802 62.0503C38.3008 63.0049 38.8197 64.2986 38.8237 65.6489C38.82 66.9992 38.3013 68.293 37.381 69.2478C36.4606 70.2026 35.2134 70.7407 33.9118 70.7445H33.9108ZM33.9108 63.1016C33.2602 63.1037 32.6368 63.3727 32.1767 63.85C31.7167 64.3272 31.4574 64.9739 31.4554 65.6489C31.4554 66.2857 31.7009 66.9225 32.1931 67.4331C32.4165 67.6722 32.6835 67.8628 32.9786 67.994C33.2736 68.1252 33.5909 68.1943 33.9118 68.1973C34.5624 68.1952 35.1858 67.9262 35.6459 67.4489C36.1059 66.9717 36.3652 66.3249 36.3672 65.65C36.3655 64.9749 36.1063 64.3279 35.6462 63.8504C35.1862 63.3729 34.5626 63.1037 33.9118 63.1016H33.9108Z" fill="#1C69F7"/>
<path d="M13.596 21.0402C13.596 23.2065 11.9989 24.8622 9.91184 24.8622C7.82368 24.8622 6.22876 23.2065 6.22876 21.0413C6.22876 18.8739 7.82368 17.2193 9.91184 17.2193C11.9989 17.2193 13.5949 18.875 13.5949 21.0402H13.596Z" fill="#C2D6FF"/>
<path d="M9.91077 26.1357C8.56138 26.1357 7.33262 25.6262 6.47323 24.6073C5.49108 23.5884 5 22.3148 5 21.0401C5.00398 19.6902 5.52264 18.3968 6.44272 17.4423C7.36281 16.4877 8.60957 15.9497 9.91077 15.9456C11.2123 15.9491 12.4597 16.4869 13.3802 17.4415C14.3008 18.3961 14.8197 19.6898 14.8237 21.0401C14.82 22.3903 14.3013 23.6842 13.381 24.639C12.4606 25.5938 11.2134 26.1319 9.91185 26.1357H9.91077ZM9.91077 18.4928C9.26017 18.4949 8.63679 18.7639 8.17675 19.2412C7.7167 19.7184 7.45737 20.3651 7.45538 21.0401C7.45538 21.6769 7.70092 22.3137 8.19308 22.8243C8.41653 23.0633 8.68352 23.254 8.97857 23.3852C9.27362 23.5164 9.59085 23.5855 9.91185 23.5884C10.5624 23.5864 11.1858 23.3173 11.6459 22.8401C12.1059 22.3628 12.3652 21.7161 12.3672 21.0412C12.3655 20.366 12.1063 19.7191 11.6462 19.2416C11.1862 18.7641 10.5626 18.4949 9.91185 18.4928H9.91077Z" fill="#1C69F7"/>
<path d="M62.596 21.0402C62.596 23.2065 60.9989 24.8622 58.9118 24.8622C56.8237 24.8622 55.2288 23.2065 55.2288 21.0413C55.2288 18.8739 56.8237 17.2193 58.9118 17.2193C60.9989 17.2193 62.5949 18.875 62.5949 21.0402H62.596Z" fill="#C2D6FF"/>
<path d="M58.9108 26.1357C57.5614 26.1357 56.3326 25.6262 55.4732 24.6073C54.4911 23.5884 54 22.3148 54 21.0401C54.004 19.6902 54.5226 18.3968 55.4427 17.4423C56.3628 16.4877 57.6096 15.9497 58.9108 15.9456C60.2123 15.9491 61.4597 16.4869 62.3802 17.4415C63.3008 18.3961 63.8197 19.6898 63.8237 21.0401C63.82 22.3903 63.3013 23.6842 62.381 24.639C61.4606 25.5938 60.2134 26.1319 58.9118 26.1357H58.9108ZM58.9108 18.4928C58.2602 18.4949 57.6368 18.7639 57.1767 19.2412C56.7167 19.7184 56.4574 20.3651 56.4554 21.0401C56.4554 21.6769 56.7009 22.3137 57.1931 22.8243C57.4165 23.0633 57.6835 23.254 57.9786 23.3852C58.2736 23.5164 58.5909 23.5855 58.9118 23.5884C59.5624 23.5864 60.1858 23.3173 60.6459 22.8401C61.1059 22.3628 61.3652 21.7161 61.3672 21.0412C61.3655 20.366 61.1063 19.7191 60.6462 19.2416C60.1862 18.7641 59.5626 18.4949 58.9118 18.4928H58.9108Z" fill="#1C69F7"/>
<path d="M13.596 51.1252C13.596 53.2915 11.9989 54.9472 9.91184 54.9472C7.82368 54.9472 6.22876 53.2915 6.22876 51.1263C6.22876 48.9589 7.82368 47.3043 9.91184 47.3043C11.9989 47.3043 13.5949 48.96 13.5949 51.1252H13.596Z" fill="#C2D6FF"/>
<path d="M9.91077 56.2207C8.56138 56.2207 7.33262 55.7113 6.47323 54.6924C5.49108 53.6735 5 52.3998 5 51.1251C5.00398 49.7752 5.52264 48.4818 6.44272 47.5273C7.36281 46.5728 8.60957 46.0347 9.91077 46.0306C11.2123 46.0341 12.4597 46.5719 13.3802 47.5265C14.3008 48.4811 14.8197 49.7748 14.8237 51.1251C14.82 52.4754 14.3013 53.7692 13.381 54.724C12.4606 55.6788 11.2134 56.2169 9.91185 56.2207H9.91077ZM9.91077 48.5778C9.26017 48.5799 8.63679 48.8489 8.17675 49.3262C7.7167 49.8034 7.45737 50.4501 7.45538 51.1251C7.45538 51.7619 7.70092 52.3987 8.19308 52.9093C8.41653 53.1484 8.68352 53.339 8.97857 53.4702C9.27362 53.6014 9.59085 53.6705 9.91185 53.6735C10.5624 53.6714 11.1858 53.4024 11.6459 52.9251C12.1059 52.4478 12.3652 51.8011 12.3672 51.1262C12.3655 50.4511 12.1063 49.8041 11.6462 49.3266C11.1862 48.8491 10.5626 48.5799 9.91185 48.5778H9.91077Z" fill="#1C69F7"/>
<path d="M62.596 51.1252C62.596 53.2915 60.9989 54.9472 58.9118 54.9472C56.8237 54.9472 55.2288 53.2915 55.2288 51.1263C55.2288 48.9589 56.8237 47.3043 58.9118 47.3043C60.9989 47.3043 62.5949 48.96 62.5949 51.1252H62.596Z" fill="#C2D6FF"/>
<path d="M58.9108 56.2207C57.5614 56.2207 56.3326 55.7113 55.4732 54.6924C54.4911 53.6735 54 52.3998 54 51.1251C54.004 49.7752 54.5226 48.4818 55.4427 47.5273C56.3628 46.5728 57.6096 46.0347 58.9108 46.0306C60.2123 46.0341 61.4597 46.5719 62.3802 47.5265C63.3008 48.4811 63.8197 49.7748 63.8237 51.1251C63.82 52.4754 63.3013 53.7692 62.381 54.724C61.4606 55.6788 60.2134 56.2169 58.9118 56.2207H58.9108ZM58.9108 48.5778C58.2602 48.5799 57.6368 48.8489 57.1767 49.3262C56.7167 49.8034 56.4574 50.4501 56.4554 51.1251C56.4554 51.7619 56.7009 52.3987 57.1931 52.9093C57.4165 53.1484 57.6835 53.339 57.9786 53.4702C58.2736 53.6014 58.5909 53.6705 58.9118 53.6735C59.5624 53.6714 60.1858 53.4024 60.6459 52.9251C61.1059 52.4478 61.3652 51.8011 61.3672 51.1262C61.3655 50.4511 61.1063 49.8041 60.6462 49.3266C60.1862 48.8491 59.5626 48.5799 58.9118 48.5778H58.9108Z" fill="#1C69F7"/>
</svg>
