<svg width="70" height="74" viewBox="0 0 70 74" fill="none" xmlns="http://www.w3.org/2000/svg">
<g clip-path="url(#clip0_351_5512)">
<path d="M26.0745 58.5924C28.6884 59.7276 31.4929 60.3153 34.3266 60.3216C37.1604 60.3279 39.9673 59.7527 42.5859 58.6291C45.2044 57.5055 47.5829 55.8558 49.5845 53.7747C51.586 51.6937 53.171 49.2226 54.2483 46.5035C55.3255 43.7845 55.8738 40.8713 55.8614 37.9316C55.8491 34.9919 55.2764 32.0837 54.1763 29.3745C53.0762 26.6653 51.4705 24.2086 49.4516 22.1458C47.4327 20.0829 45.0404 18.4547 42.4125 17.3548C39.8024 16.2419 37.0065 15.6733 34.1846 15.6813C31.3626 15.6893 28.5698 16.2739 25.9656 17.4016C23.3614 18.5294 20.9968 20.1782 19.0069 22.254C17.0169 24.3297 15.4406 26.7918 14.3678 29.4995C12.2012 34.9681 12.2175 41.1056 14.4129 46.5618C16.6083 52.018 20.8031 56.3459 26.0745 58.5935V58.5924Z" fill="#2A3361"/>
<path d="M40.9909 33.5098H40.6226L6.24078 23.3175C5.74863 23.1901 5.50309 22.8069 5.38032 22.2974C5.25755 21.788 5.50309 21.2785 5.87247 21.0238L27.9752 4.46444C28.3436 4.20972 28.7119 4.20972 29.0802 4.20972L63.462 14.401C63.9542 14.5283 64.1997 14.9104 64.3225 15.4199C64.4452 15.9293 64.1997 16.4388 63.8314 16.6935L41.7276 33.254C41.482 33.3813 41.2365 33.5087 40.9909 33.5087V33.5098ZM9.43386 21.5333L40.8692 30.833L60.3939 16.1829L28.9585 6.88433L9.43278 21.5333H9.43386ZM15.6326 49.3184L19.3146 46.5578L20.7534 48.6213L17.0725 51.3831L15.6326 49.3184ZM23.3089 46.7578L21.8357 44.7189L27.9742 40.1338C28.2208 39.8791 28.7119 39.8791 29.0802 39.8791L36.4474 42.0442L35.8336 44.4641L29.0802 42.4263L23.3079 46.7578H23.3089ZM38.1974 45.2864L38.8726 42.8363L45.0111 44.6574L44.3359 47.1063L38.1974 45.2853V45.2864ZM46.8236 47.8526L47.4966 45.4037L52.4548 46.874L51.7796 49.3229L46.8225 47.8526H46.8236Z" fill="white"/>
<path d="M40.9909 69.178H40.6226L6.24078 58.9868C5.74863 58.8594 5.50309 58.4773 5.38032 57.9679C5.25755 57.4584 5.50309 56.949 5.87247 56.6943L13.2386 51.2165L14.714 53.2543L9.43278 57.2037L40.8682 66.5023L60.3939 51.8545L54.2543 50.0703L54.8682 47.6504L63.4631 50.1976C63.9552 50.3261 64.2008 50.7082 64.3236 51.2177C64.4463 51.7271 64.2008 52.2366 63.8325 52.4913L41.7276 69.0507C41.482 69.0507 41.2365 69.178 40.9909 69.178Z" fill="white"/>
<path d="M5.38031 22.0438H7.8357V57.7132H5.38031V22.0438ZM39.7632 32.2351H42.2186V67.9044H39.7632V32.2351ZM27.4842 33.5087H29.9395V41.1527H27.4842V33.5087ZM27.4842 24.5922H29.9395V30.9603H27.4842V24.5922ZM27.4842 16.9482H29.9395V22.0438H27.4842V16.9493V16.9482ZM27.4842 5.48334H29.9395V14.401H27.4842V5.48334ZM61.866 15.6746H64.3214V51.3439H61.866V15.6746Z" fill="white"/>
<path d="M44.6751 67.9044C44.6751 70.0696 43.0791 71.7253 40.992 71.7253C38.9028 71.7253 37.3068 70.0696 37.3068 67.9044C37.3068 65.7381 38.9038 64.0824 40.9909 64.0824C43.0791 64.0824 44.674 65.7381 44.674 67.9033L44.6751 67.9044Z" fill="#C2D6FF"/>
<path d="M40.9909 73C39.6895 72.9959 38.4426 72.4577 37.5225 71.5029C36.6024 70.5482 36.0838 69.2545 36.0801 67.9044C36.0838 66.5543 36.6024 65.2606 37.5225 64.3059C38.4426 63.3511 39.6895 62.8129 40.9909 62.8088C42.2923 62.8126 43.5393 63.3505 44.4597 64.3051C45.38 65.2596 45.8988 66.5532 45.9028 67.9033C45.8994 69.2535 45.3809 70.5475 44.4608 71.5025C43.5406 72.4575 42.2936 72.9959 40.992 73H40.9909ZM40.9909 65.356C40.3403 65.3581 39.7169 65.6271 39.2569 66.1044C38.7968 66.5816 38.5375 67.2283 38.5355 67.9033C38.5372 68.5784 38.7964 69.2254 39.2565 69.7029C39.7166 70.1804 40.3401 70.4496 40.9909 70.4516C41.6415 70.4496 42.2649 70.1806 42.7249 69.7033C43.185 69.226 43.4443 68.5793 43.4463 67.9044C43.4443 67.2295 43.185 66.5828 42.7249 66.1055C42.2649 65.6282 41.6415 65.3592 40.9909 65.3571V65.356Z" fill="#1C69F7"/>
<path d="M66.7779 51.3439C66.7779 53.5091 65.1819 55.1648 63.0948 55.1648C61.0066 55.1648 59.4106 53.5091 59.4106 51.3439C59.4106 49.1776 61.0066 47.5219 63.0937 47.5219C65.1819 47.5219 66.7779 49.1776 66.7779 51.3428V51.3439Z" fill="#C2D6FF"/>
<path d="M63.0937 56.4395C61.7923 56.4354 60.5454 55.8972 59.6253 54.9424C58.7051 53.9877 58.1866 52.694 58.1829 51.3439C58.1866 49.9938 58.7051 48.7001 59.6253 47.7454C60.5454 46.7906 61.7923 46.2524 63.0937 46.2483C64.3951 46.2521 65.6421 46.7901 66.5624 47.7446C67.4828 48.6991 68.0016 49.9927 68.0055 51.3428C68.0021 52.6931 67.4837 53.987 66.5636 54.942C65.6434 55.897 64.3963 56.4354 63.0948 56.4395H63.0937ZM63.0937 48.7955C62.4431 48.7976 61.8197 49.0666 61.3597 49.5439C60.8996 50.0212 60.6403 50.6679 60.6383 51.3428C60.64 52.0179 60.8992 52.6649 61.3593 53.1424C61.8194 53.6199 62.4429 53.8891 63.0937 53.8912C63.7443 53.8891 64.3677 53.6201 64.8277 53.1428C65.2878 52.6656 65.5471 52.0189 65.5491 51.3439C65.5471 50.669 65.2878 50.0223 64.8277 49.545C64.3677 49.0678 63.7443 48.7987 63.0937 48.7967V48.7955Z" fill="#1C69F7"/>
<path d="M32.396 41.1516C32.396 43.319 30.7989 44.9747 28.7118 44.9747C26.6237 44.9747 25.0287 43.3178 25.0287 41.1527C25.0287 38.9864 26.6237 37.3318 28.7118 37.3318C30.7989 37.3318 32.3949 38.9864 32.3949 41.1527L32.396 41.1516Z" fill="#C2D6FF"/>
<path d="M28.7108 46.2483C27.4094 46.2442 26.1625 45.706 25.2423 44.7512C24.3222 43.7965 23.8037 42.5028 23.8 41.1527C23.8037 39.8026 24.3222 38.5089 25.2423 37.5542C26.1625 36.5994 27.4094 36.0612 28.7108 36.0571C30.0123 36.0606 31.2596 36.5984 32.1802 37.553C33.1007 38.5076 33.6197 39.8013 33.6237 41.1516C33.6203 42.502 33.1017 43.7962 32.1813 44.7512C31.2609 45.7062 30.0136 46.2445 28.7118 46.2483H28.7108ZM28.7108 38.6043C28.0602 38.6064 27.4368 38.8754 26.9767 39.3527C26.5167 39.8299 26.2574 40.4766 26.2554 41.1516C26.2571 41.8267 26.5163 42.4737 26.9764 42.9512C27.4364 43.4287 28.06 43.6979 28.7108 43.6999C29.3615 43.6982 29.9852 43.4293 30.4455 42.952C30.9058 42.4747 31.1652 41.8278 31.1672 41.1527C31.1652 40.4778 30.9059 39.831 30.4459 39.3538C29.9858 38.8765 29.3624 38.6075 28.7118 38.6054L28.7108 38.6043Z" fill="#1C69F7"/>
<path d="M10.2922 57.7132C10.2922 59.8783 8.69616 61.534 6.60908 61.534C4.52093 61.534 2.92493 59.8783 2.92493 57.7132C2.92493 55.5469 4.52093 53.8923 6.608 53.8923C8.69724 53.8923 10.2922 55.5469 10.2922 57.7132Z" fill="#C2D6FF"/>
<path d="M6.60905 62.8088C5.30748 62.805 4.06028 62.2669 3.13993 61.3121C2.21958 60.3573 1.7009 59.0634 1.6972 57.7132C1.7009 56.3631 2.21943 55.0694 3.13955 54.1147C4.05967 53.1599 5.30659 52.6217 6.60797 52.6176C7.90954 52.6211 9.15686 53.1589 10.0774 54.1135C10.998 55.068 11.5169 56.3618 11.5209 57.7121C11.5175 59.0625 10.9989 60.3567 10.0785 61.3117C9.15817 62.2667 7.9108 62.805 6.60905 62.8088ZM6.60905 55.1648C5.95845 55.1669 5.33507 55.4359 4.87503 55.9132C4.41498 56.3904 4.15565 57.0371 4.15367 57.7121C4.15537 58.3872 4.41458 59.0342 4.87465 59.5117C5.33472 59.9892 5.95827 60.2584 6.60905 60.2604C7.25965 60.2584 7.88303 59.9893 8.34307 59.5121C8.80312 59.0348 9.06245 58.3881 9.06444 57.7132C9.06245 57.0382 8.80312 56.3915 8.34307 55.9143C7.88303 55.437 7.25965 55.168 6.60905 55.1659V55.1648Z" fill="#1C69F7"/>
<path d="M10.2922 22.0438C10.2922 24.2101 8.69616 25.8658 6.60908 25.8658C4.52093 25.8658 2.92493 24.2101 2.92493 22.0449C2.92493 19.8775 4.52093 18.2229 6.608 18.2229C8.69724 18.2229 10.2922 19.8786 10.2922 22.0438Z" fill="#C2D6FF"/>
<path d="M6.60905 27.1394C5.30767 27.1356 4.06063 26.5977 3.14031 25.6431C2.21999 24.6886 1.70118 23.395 1.6972 22.0449C1.70061 20.6947 2.21902 19.4007 3.13917 18.4457C4.05932 17.4907 5.30641 16.9523 6.60797 16.9482C7.90973 16.9517 9.15721 17.4897 10.0778 18.4445C10.9984 19.3993 11.5172 20.6933 11.5209 22.0438C11.5209 23.4459 11.0287 24.7195 10.0466 25.6111C9.1872 26.63 7.95951 27.1394 6.60905 27.1394ZM6.60905 19.4966C5.95845 19.4986 5.33507 19.7676 4.87503 20.2449C4.41498 20.7222 4.15565 21.3689 4.15367 22.0438C4.15565 22.7187 4.41498 23.3654 4.87503 23.8427C5.33507 24.32 5.95845 24.589 6.60905 24.5911C7.2229 24.5911 7.83674 24.3374 8.32782 23.828C8.55841 23.5961 8.74228 23.3189 8.86873 23.0126C8.99519 22.7063 9.06171 22.377 9.06444 22.0438C9.06245 21.3689 8.80312 20.7222 8.34307 20.2449C7.88303 19.7676 7.25965 19.4986 6.60905 19.4966Z" fill="#1C69F7"/>
<path d="M32.396 5.48342C32.396 7.6497 30.799 9.30541 28.7119 9.30541C26.6237 9.30541 25.0288 7.6497 25.0288 5.48453C25.0288 3.31713 26.6237 1.66254 28.7119 1.66254C30.799 1.66254 32.395 3.31825 32.395 5.48342H32.396Z" fill="#C2D6FF"/>
<path d="M28.7108 10.5789C27.3614 10.5789 26.1326 10.0695 25.2732 9.05057C24.2911 8.03167 23.8 6.75804 23.8 5.4833C23.804 4.13342 24.3226 2.84001 25.2427 1.8855C26.1628 0.930985 27.4096 0.392919 28.7108 0.388794C30.0123 0.39233 31.2596 0.930136 32.1802 1.88471C33.1007 2.83929 33.6197 4.13304 33.6237 5.4833C33.62 6.83356 33.1013 8.12743 32.181 9.08222C31.2606 10.037 30.0134 10.5751 28.7118 10.5789H28.7108ZM28.7108 2.93605C28.0602 2.93811 27.4368 3.20714 26.9767 3.6844C26.5167 4.16165 26.2574 4.80836 26.2554 5.4833C26.2554 6.12011 26.5009 6.75693 26.9931 7.26749C27.2165 7.50658 27.4835 7.69725 27.7786 7.82843C28.0736 7.95961 28.3908 8.0287 28.7118 8.03167C29.3624 8.02961 29.9858 7.76057 30.4459 7.28332C30.9059 6.80606 31.1652 6.15936 31.1672 5.48442C31.1655 4.80928 30.9063 4.16229 30.4462 3.68479C29.9862 3.2073 29.3626 2.93811 28.7118 2.93605H28.7108Z" fill="#1C69F7"/>
<path d="M66.7779 15.6746C66.7779 17.8409 65.1819 19.4955 63.0948 19.4955C61.0066 19.4955 59.4106 17.8409 59.4106 15.6746C59.4106 13.5094 61.0066 11.8537 63.0937 11.8537C65.1819 11.8537 66.7779 13.5094 66.7779 15.6746Z" fill="#C2D6FF"/>
<path d="M63.0937 20.7702C61.7925 20.766 60.5457 20.228 59.6256 19.2735C58.7056 18.3189 58.1869 17.0255 58.1829 15.6757C58.1863 14.3254 58.7047 13.0314 59.6249 12.0764C60.545 11.1214 61.7921 10.583 63.0937 10.5789C64.3953 10.5828 65.6425 11.1208 66.5628 12.0756C67.4832 13.0304 68.0018 14.3243 68.0055 15.6745C68.0018 17.0246 67.4833 18.3183 66.5632 19.2731C65.6431 20.2278 64.3961 20.766 63.0948 20.7702H63.0937ZM63.0937 13.1273C62.4431 13.1294 61.8197 13.3984 61.3597 13.8756C60.8996 14.3529 60.6403 14.9996 60.6383 15.6745C60.6403 16.3495 60.8996 16.9962 61.3597 17.4734C61.8197 17.9507 62.4431 18.2197 63.0937 18.2218C63.7443 18.2197 64.3677 17.9507 64.8277 17.4734C65.2878 16.9962 65.5471 16.3495 65.5491 15.6745C65.5471 14.9996 65.2878 14.3529 64.8277 13.8756C64.3677 13.3984 63.7443 13.1294 63.0937 13.1273Z" fill="#1C69F7"/>
<path d="M44.6751 32.2362C44.6751 34.4014 43.0791 36.0571 40.992 36.0571C38.9028 36.0571 37.3068 34.4014 37.3068 32.2362C37.3068 30.0688 38.9038 28.4131 40.9909 28.4131C43.0791 28.4131 44.674 30.0699 44.674 32.2351L44.6751 32.2362Z" fill="#C2D6FF"/>
<path d="M40.9909 37.3306C39.6897 37.3265 38.443 36.7885 37.5229 35.8339C36.6028 34.8794 36.0841 33.586 36.0801 32.2361C36.0835 30.8859 36.602 29.5919 37.5221 28.6369C38.4423 27.6819 39.6893 27.1435 40.9909 27.1394C42.2925 27.1432 43.5397 27.6813 44.46 28.6361C45.3804 29.5909 45.8991 30.8848 45.9028 32.235C45.8991 33.5851 45.3805 34.8788 44.4604 35.8335C43.5403 36.7883 42.2934 37.3265 40.992 37.3306H40.9909ZM40.9909 29.6878C40.3403 29.6898 39.7169 29.9589 39.2569 30.4361C38.7968 30.9134 38.5375 31.5601 38.5355 32.235C38.5375 32.91 38.7968 33.5567 39.2569 34.0339C39.7169 34.5112 40.3403 34.7802 40.9909 34.7823C41.6415 34.7802 42.2649 34.5112 42.7249 34.0339C43.185 33.5567 43.4443 32.91 43.4463 32.235C43.4443 31.5601 43.185 30.9134 42.7249 30.4361C42.2649 29.9589 41.6415 29.6898 40.9909 29.6878Z" fill="#1C69F7"/>
</g>
<defs>
<clipPath id="clip0_351_5512">
<rect width="70" height="72.619" fill="white" transform="translate(0 0.384338)"/>
</clipPath>
</defs>
</svg>
